---
layout: anime

title: "Akagami no Shirayuki-hime: Nandemonai Takaramono, Kono Page"
image: https://i.postimg.cc/HkBY4S7C/mpv-2022-04-30-00-35-18.jpg
mal: 31483
anidb: 11524
r720: false
r1080: true

desc: >-
  A small release I put together since Catar didn't include it in her release because it was never dubbed.
  <br><br>
  This release also takes Beatrice-Raws and GJM subs. My edits include ShiftCut (fixed a subtitle ending a frame too soon), fixed a blur-out in lines 284-285, improved the episode title sign (the fade looked awful because of a black layer), and added a missing font.

status: Complete
groups: Beatrice-Raws, GJM
vidinfo: .mkv, h264 10-bit

size1080: 1.45 GB @ 1080p (1920x1080) [Beatrice-Raws]
audio1080a: Japanese 2.0ch FLAC (Main Dialogue)  [Beatrice-Raws]
subtitle1: English Dialogue (.ass) [(Modified) GJM]

nyaa1080: https://nyaa.si/view/1129902
anidex1080: https://anidex.info/torrent/234516
at1080: https://animetosho.org/view/cyc-akagami-no-shirayuki-hime-ova-bd-1080p.d234516
ant1080: https://animetorrents.me/torrent-details.php?torid=42424
ab1080: https://animebytes.tv/torrents.php?id=26533&torrentid=405854

github: https://github.com/cyc-anime/Akagami-no-Shirayuki-hime-OVA
---
General
Unique ID                                : 193543820980776034592785884846615302206 (0x919B2F1D19EBD98E990CCAE87D5E103E)
Complete name                            : [CyC] Akagami no Shirayuki-hime OVA01 (BD 1080p Hi10 x264 FLAC) [597CD149].mkv
Format                                   : Matroska
Format version                           : Version 4
File size                                : 1.45 GiB
Duration                                 : 24 min 2 s
Overall bit rate mode                    : Variable
Overall bit rate                         : 8 643 kb/s
Movie name                               : Nandemonai Takaramono, Kono Page
Encoded date                             : UTC 2019-03-25 02:04:44
Writing application                      : mkvmerge v9.7.1 ('Pandemonium') 64bit
Writing library                          : libebml v1.3.4 + libmatroska v1.4.5
Attachments                              : GARTON.ttf / BALZANO.TTF / GANDHISANS-BOLD.OTF / GANDHISANS-BOLDITALIC.OTF / HIROSHIGESTD-BOOK.OTF / MODERNANTIQUA-REGULAR.TTF

Video
ID                                       : 1
Format                                   : AVC
Format/Info                              : Advanced Video Codec
Format profile                           : High 10@L5
Format settings                          : CABAC / 4 Ref Frames
Format settings, CABAC                   : Yes
Format settings, RefFrames               : 4 frames
Codec ID                                 : V_MPEG4/ISO/AVC
Duration                                 : 24 min 2 s
Bit rate                                 : 7 179 kb/s
Width                                    : 1 920 pixels
Height                                   : 1 080 pixels
Display aspect ratio                     : 16:9
Frame rate mode                          : Constant
Frame rate                               : 23.976 (24000/1001) FPS
Color space                              : YUV
Chroma subsampling                       : 4:2:0
Bit depth                                : 10 bits
Scan type                                : Progressive
Bits/(Pixel*Frame)                       : 0.144
Stream size                              : 1.21 GiB (83%)
Title                                    : Beatrice-Raws
Writing library                          : x264 core 155 r2901M 7d0ff22 (DJATOM's mod)
Encoding settings                        : cabac=1 / ref=4 / deblock=1:1:-1 / analyse=0x3:0x113 / me=umh / subme=9 / psy=1 / fade_compensate=0.00 / psy_rd=1.00:0.00 / mixed_ref=1 / me_range=32 / chroma_me=1 / trellis=2 / 8x8dct=1 / cqm=0 / deadzone=21,11 / fast_pskip=1 / chroma_qp_offset=-2 / threads=34 / lookahead_threads=5 / sliced_threads=0 / nr=0 / decimate=1 / interlaced=0 / bluray_compat=0 / constrained_intra=0 / bframes=9 / b_pyramid=2 / b_adapt=2 / b_bias=0 / direct=1 / weightb=1 / open_gop=0 / weightp=2 / keyint=250 / keyint_min=23 / scenecut=40 / intra_refresh=0 / rc=crf / mbtree=0 / crf=15.0000 / qcomp=0.72 / qpmin=0 / qpmax=81 / qpstep=4 / ip_ratio=1.40 / pb_ratio=1.30 / aq=1:0.85
Language                                 : Japanese
Default                                  : Yes
Forced                                   : No
Color range                              : Limited
Color primaries                          : BT.709
Transfer characteristics                 : BT.709
Matrix coefficients                      : BT.709

Audio
ID                                       : 2
Format                                   : FLAC
Format/Info                              : Free Lossless Audio Codec
Codec ID                                 : A_FLAC
Duration                                 : 24 min 2 s
Bit rate mode                            : Variable
Bit rate                                 : 1 445 kb/s
Channel(s)                               : 2 channels
Channel layout                           : L R
Sampling rate                            : 48.0 kHz
Frame rate                               : 11.719 FPS (4096 SPF)
Bit depth                                : 24 bits
Compression mode                         : Lossless
Stream size                              : 249 MiB (17%)
Title                                    : Beatrice-Raws
Writing library                          : libFLAC 1.3.2 (UTC 2017-01-01)
Language                                 : Japanese
Default                                  : Yes
Forced                                   : No

Text
ID                                       : 3
Format                                   : ASS
Codec ID                                 : S_TEXT/ASS
Codec ID/Info                            : Advanced Sub Station Alpha
Duration                                 : 23 min 48 s
Bit rate                                 : 13.6 kb/s
Count of elements                        : 7673
Compression mode                         : Lossless
Stream size                              : 2.31 MiB (0%)
Title                                    : (Modified) GJM
Default                                  : Yes
Forced                                   : No

Menu
00:00:00.000                             : :Avant
00:02:21.015                             : :OP
00:03:51.022                             : :Part A
00:13:16.962                             : :Part B
00:22:25.969                             : :ED